<?xml version="1.0" standalone="no"?><!DOCTYPE svg PUBLIC "-//W3C//DTD SVG 1.1//EN" "http://www.w3.org/Graphics/SVG/1.1/DTD/svg11.dtd"><svg t="1704760419102" class="icon" viewBox="0 0 1214 1024" version="1.1" xmlns="http://www.w3.org/2000/svg" p-id="11700" xmlns:xlink="http://www.w3.org/1999/xlink" width="237.109375" height="200"><path d="M553.780069 0.000068a87.164596 87.164596 0 0 1 54.416988 18.984777l0.063434 0.047576 1.051185-0.826903A86.97203 86.97203 0 0 1 661.402009 0.000068h1.252814a87.16233 87.16233 0 0 1 70.48835 35.833201l0.373805 0.518797 1.363823-0.854089a86.858755 86.858755 0 0 1 44.317448-12.833981L780.460125 22.654934c35.001768 0 65.903004 20.794901 79.677163 51.675749l0.036248 0.083823 1.660601-0.514266a87.169127 87.169127 0 0 1 23.660742-3.658761L886.937994 70.230152c43.510935 0 79.582012 31.861803 86.151924 73.526367 65.651535-26.558299 163.559069-21.547043 217.855985 15.468742l1.687788 1.175787 0.60715 0.39193c15.185557 10.013451 22.532529 23.796671 20.652176 37.9469l-0.108744 0.74761c-1.955115 12.462442-11.060105 22.881414-22.97883 26.714618l-0.412318 0.124602-18.243964 6.05338-5.844955 1.989097c-32.953768 11.393132-56.80481 23.32545-82.839782 44.113555 31.227467 12.958583 53.232138 43.524528 53.798509 79.187817l0.011328 1.409133c0 15.382654-4.003115 30.169485-11.397663 43.139396l-0.169912 0.287716 0.604885 0.330761c26.900388 14.906902 44.530404 43.331962 44.944988 75.186969v1.125947c0 27.811113-13.139822 53.21628-34.349307 69.387322l-0.779327 0.584496 1.060247 0.856354a87.153269 87.153269 0 0 1 31.796104 66.270013l0.006797 1.096496c0 37.160776-23.345839 69.224208-56.560138 81.684384l-1.09423 0.400991 0.437239 0.598088a86.940313 86.940313 0 0 1 16.429309 49.736493l0.009061 1.243752c0 44.317448-33.053449 80.914119-75.850756 86.487215l-0.276389 0.031717 0.158584 0.894867c0.711363 4.23646 1.110088 8.545415 1.191646 12.899681l0.015859 1.633416c0 48.171041-39.050192 87.221233-87.221234 87.221233-0.595823 0-1.191646-0.006796-1.787469-0.018124l-1.191645-0.036248-0.337558 0.824637c-13.180601 31.59221-43.16205 45.8172-75.975358 47.869731l-1.178053 0.006797c-22.315043 1.193911-44.990298-2.059327-60.674261-15.751928l-0.845027-0.747611-1.878088 0.924319c-64.90619 31.685095-136.34831 48.576563-210.191845 48.977554h-2.639291c-75.350083 0-148.257972-17.174654-214.337685-49.704775l-1.832779-0.908461-0.616212 0.566372c-15.5503 13.971256-40.815006 16.560707-64.543713 15.50499l-1.239221 0.009062c-35.26683-2.424071-54.768138-16.080424-72.980385-45.966722l-0.403256-0.951505-0.212956 0.009062-1.903009 0.018124c-48.304705 0-87.465906-39.158935-87.465905-87.465906 0-5.364672 0.484814-10.670442 1.438584-15.860671l0.045309-0.235611-1.44538-0.169911c-42.507325-5.477947-75.454296-41.469732-76.165659-85.297835l-0.011327-1.447646a87.189516 87.189516 0 0 1 15.387185-49.566581l0.573168-0.817841-0.593558-0.226548c-32.419113-12.632353-55.130616-43.948174-55.66527-80.198225l-0.011328-1.313982a87.407003 87.407003 0 0 1 32.351149-67.930615l0.790654-0.634337-0.600354-0.444035a87.574649 87.574649 0 0 1-17.500883-17.625485C27.163184 526.243148 0 495.672672 0 458.761099 0 418.095615 32.96283 385.132786 73.628314 385.132786c3.264566 0 6.479292 0.212956 9.632849 0.625274a87.273339 87.273339 0 0 1-4.349735-26.02591l-0.011327-1.300389c0-36.007644 21.791715-67.022155 52.996527-80.413446-25.808423-20.502654-49.546191-32.342086-82.253021-43.64913l-5.844955-1.989097-18.246229-6.05338-0.412318-0.124602c-11.916459-3.833203-21.023715-14.249911-22.976565-26.712352l-0.108744-0.749876c-1.880354-14.150229 5.464354-27.933449 20.652176-37.9469l0.60715-0.39193 1.687788-1.175787c54.426049-37.104139 152.67114-42.051962 218.327207-15.280707 6.250477-42.167502 42.602475-74.523181 86.512135-74.523181 9.401769 0 18.604176 1.488425 27.33083 4.356531l0.398726 0.133663c13.726583-30.463998 44.093165-51.050474 78.585198-51.510368l1.178053-0.006796c16.266194 0 31.864069 4.463009 45.359573 12.66407l0.718159 0.444035 0.609416-0.81331A87.409269 87.409269 0 0 1 552.681308 0.000068h1.098761zM662.654823 22.654934c-17.670795 0-34.183927 7.118159-46.270298 19.533025a11.327433 11.327433 0 0 1-16.220883 0.011327A64.570898 64.570898 0 0 0 553.780069 22.654934a64.781589 64.781589 0 0 0-57.253376 34.412741c-3.393699 6.377345-11.809982 7.990371-17.321911 3.321203a64.498403 64.498403 0 0 0-41.872988-15.339609c-29.118299 0-54.435111 19.374441-62.316739 46.947678-1.955115 6.837238-9.650973 10.203752-15.998866 6.998088a64.487075 64.487075 0 0 0-29.174937-6.918796c-35.794688 0-64.81104 29.016352-64.81104 64.81104 0 5.056566 0.577699 10.024778 1.708177 14.838937 2.032141 8.654159-6.236885 16.168778-14.655432 13.321061l-1.329841-0.430443a64.779323 64.779323 0 0 0-19.444671-2.965521c-35.794688 0-64.81104 29.016352-64.81104 64.811039 0 10.810902 2.639292 21.214016 7.618831 30.520636l0.21069 0.412318c3.56361 7.337911-1.617557 16.014725-9.87299 16.252601-34.979113 1.010407-62.898969 29.700529-62.898969 64.783854a64.464421 64.464421 0 0 0 13.275751 39.303927C134.393195 410.966129 147.256627 433.362729 147.256627 458.761099c0 34.208847-23.327715 62.966934-54.944846 71.23596a64.713624 64.713624 0 0 0 14.786831 8.887504c8.955468 3.86492 9.161628 16.488211 0.337558 20.645379a64.813305 64.813305 0 0 0-37.233272 58.671572c0 32.464423 24.018689 59.808846 55.857837 64.194827 9.558088 1.318513 13.198725 13.214583 6.017132 19.655362-13.638229 12.229097-21.565167 29.598582-21.565166 48.272988 0 35.794688 29.016352 64.81104 64.81104 64.81104 1.415929 0 2.818265-0.04531 4.207008-0.13593l0.455363-0.018123c7.990371-0.21069 13.737911 7.784212 10.865274 15.346406a64.634332 64.634332 0 0 0-4.200213 23.008281c0 35.794688 29.018618 64.81104 64.813306 64.81104 2.831858 0 5.643327-0.181239 8.420813-0.539186 5.509663-0.711363 10.135787 2.849982 12.308389 8.001699 10.38499 24.621308 25.905839 37.4349 54.768138 39.428528 28.862299 1.991363 43.490546-1.110088 55.719642-14.80722a11.327433 11.327433 0 0 1 13.669946-2.510159c65.300385 33.903007 137.938681 51.850191 213.180022 51.850191 74.670438 0 146.77861-17.675326 211.689331-51.091253a11.327433 11.327433 0 0 1 13.540813 2.424071c12.165663 13.29161 18.413875 20.156034 50.733306 17.707043 32.319431-2.451256 51.222651-16.084955 59.034049-43.615148a11.327433 11.327433 0 0 1 12.494159-8.124035c3.028956 0.430442 6.103221 0.650195 9.206937 0.650195 35.658759 0 64.566367-28.907609 64.566368-64.566367 0-7.691327-1.341168-15.181026-3.926088-22.228955l-0.149523-0.430442c-2.41954-7.464778 3.361982-15.147043 11.293451-14.789097l1.486159 0.052107 1.49069 0.015858c35.658759 0 64.566367-28.907609 64.566368-64.566367 0-19.360848-8.556743-37.301236-23.112494-49.500882-7.666407-6.427185-3.846796-18.910016 6.103221-19.947609l0.97869-0.108744C1121.74435 677.600306 1146.336207 650.149405 1146.336207 617.34516a64.559571 64.559571 0 0 0-36.886652-58.349872c-8.77876-4.170761-8.572601-16.735149 0.339823-20.615928A64.577695 64.577695 0 0 0 1148.601694 479.150479c0-27.813379-17.747822-52.237589-43.637803-61.100173-7.485168-2.562265-10.10407-11.816778-5.070159-17.922265A64.244668 64.244668 0 0 0 1114.619395 359.07969c0-34.831856-27.634405-63.358863-62.34166-64.525588-8.511433-0.287717-13.674477-9.510513-9.469733-16.916389l0.598088-1.07384A64.224279 64.224279 0 0 0 1051.185771 245.805361c0-35.658759-28.907609-64.566367-64.566367-64.566367-7.550867 0-14.906902 1.291327-21.843822 3.787894-8.423079 3.031221-16.868813-4.444885-14.881981-13.173805l0.337557-1.563186c0.842761-4.19115 1.273203-8.484247 1.273204-12.838512 0-35.658759-28.907609-64.566367-64.566368-64.566367-9.999858 0-19.653096 2.265487-28.415998 6.569911-6.35469 3.121841-13.982583-0.285451-15.899185-7.100035C834.861254 64.747674 809.571628 45.309799 780.460125 45.309799a64.242403 64.242403 0 0 0-42.622864 16.071362l-0.376071 0.317168c-5.56177 4.496991-13.928211 2.763894-17.206371-3.685946A64.55504 64.55504 0 0 0 662.654823 22.654934z m32.197095 196.757509c8.273557 34.976847 41.327006 60.427323 79.9898 60.427323 15.348672 0 30.017697-3.989522 42.69083-11.31384C834.795555 244.477786 863.003129 228.814212 894.867197 228.814212c52.550227 0 95.150436 42.60021 95.150436 95.150436 0 6.479292-0.647929 12.802265-1.880353 18.916813 0.668319 1.30492 1.332106 2.614372 1.986831 3.926088 33.434051 36.247785 49.734227 86.523463 49.734227 123.35801 0 14.34053-1.807858 28.255149-5.382796 41.519572 0.056637 0.935646 0.113274 1.869026 0.16538 2.804673l0.018124 0.362478 0.78839 0.348885c26.904919 12.118088 45.012953 38.889343 45.413944 69.224207v1.012673c0 37.482475-26.904919 68.993128-62.851394 75.70803l-0.299045 0.049841-1.11915 3.758442c-53.952563 176.69436-216.324517 300.797715-403.641743 303.312405l-5.799646 0.038513c-189.761687 0-354.940578-124.841903-409.454981-303.364511l-1.125947-3.783362-0.303576-0.052107c-35.443537-6.744354-62.024491-37.607077-62.60219-74.462012v-1.205239c0-30.65883 18.101238-57.826545 45.18513-70.128137l0.786124-0.351151 0.203893-3.420884 0.190301-2.895292C167.743422 491.24138 160.849547 471.669842 160.849547 450.831896c0-45.756032 26.053096-86.235746 71.072845-113.856558v0.194831a11.309309 11.309309 0 0 1 11.993486 1.789735 63.080208 63.080208 0 0 0 41.419891 15.398512c34.974582 0 63.32035-28.295927 63.320349-63.191217 0-4.080141-0.385133-8.099115-1.146336-12.018406l-0.081557-0.46669c-1.662867-10.693097 11.404459-17.480494 19.197733-9.712141 15.375857 15.321486 36.664635 24.172742 59.507536 24.172741 38.798723 0 71.931464-25.627184 80.062295-60.762615 2.265487-9.791433 15.212742-12.002548 20.597804-3.516035 14.698477 23.153273 41.163891 37.670511 70.361482 37.670511 33.982299 0 63.975075-19.687078 76.226827-48.895997 4.243256-10.113132 18.946264-8.898831 21.470016 1.773876z m-162.557723 296.248617l-0.484814 0.598089c-34.102369 41.279431-98.736701 67.647429-170.532237 68.227393l-2.421805 0.009062c-65.193907 0-123.469018-21.125662-159.639777-54.247076a11.26853 11.26853 0 0 1-5.142655 3.425416l-0.842761 0.278655C171.36367 541.378864 156.318574 561.963075 156.318574 585.438047c0 28.366157 21.861945 51.920421 50.010616 54.197235a11.327433 11.327433 0 0 1 10.004389 8.271292C264.617894 822.530279 423.777388 945.650412 607.150402 945.650412c183.368483 0 342.523446-123.115602 390.805496-297.730245a11.327433 11.327433 0 0 1 10.045168-8.275823c28.237025-2.181664 50.203183-25.767644 50.203182-54.206297 0-21.850618-13.03561-41.195608-32.459891-49.759147-8.937345 19.199999-22.061308 36.492458-39.208776 51.050474C948.4233 619.085053 892.375162 636.601796 820.91945 636.601796c-110.55801 0-233.834462-53.161908-287.45853-119.477231l-1.166725-1.463505zM633.35302 863.150453a11.100884 11.100884 0 0 1 6.080566 20.389379l-6.336566 4.145841a45.309732 45.309732 0 0 1-49.627749 0L577.132705 883.539832a11.100884 11.100884 0 0 1 6.080566-20.389379h50.139749z m8.563539-48.116669a6.79646 6.79646 0 0 1-10.629663 8.470654c-13.416211-16.841627-36.163962-16.325096-48.127997-0.188035a6.79646 6.79646 0 0 1-10.919645-8.094584c17.263008-23.28014 50.676669-24.039078 69.677305-0.188035zM789.522071 663.787635c30.654299 0 55.504421 24.850122 55.504422 55.504421S820.17637 774.796477 789.522071 774.796477 734.01765 749.946354 734.01765 719.292056s24.850122-55.504421 55.504421-55.504421z m-362.477852 0c30.654299 0 55.504421 24.850122 55.504422 55.504421S457.698518 774.796477 427.044219 774.796477 371.539798 749.946354 371.539798 719.292056s24.850122-55.504421 55.504421-55.504421z m-353.415905-255.999983C45.477378 407.787652 22.654866 430.610163 22.654866 458.761099S45.477378 509.734547 73.628314 509.734547 124.601762 486.912036 124.601762 458.761099 101.77925 407.787652 73.628314 407.787652zM894.867197 251.469078c-40.037944 0-72.49557 32.457626-72.49557 72.49557 0 40.037944 32.457626 72.49557 72.49557 72.495571 40.037944 0 72.49557-32.457626 72.495571-72.495571 0-40.037944-32.457626-72.49557-72.495571-72.49557zM161.366078 149.968483c-24.859184 24.716459-36.75752 51.073129-42.06782 91.480348 8.534088 5.26046 16.923185 11.139397 25.486724 17.874689a87.891817 87.891817 0 0 1-0.92885-11.406725l-0.013593-1.454443c0-44.539466 33.28906-81.301517 76.344632-86.76587-18.046866-5.545911-38.236882-8.790088-58.821093-9.727999z m893.213392 0c-20.004246 0.910726-39.634688 4.000849-57.289625 9.26584C1040.429241 164.492517 1073.840637 201.247771 1073.840637 245.805361c0 4.07561-0.28092 8.110442-0.831434 12.086371a267.347805 267.347805 0 0 1 23.638087-16.445167c-5.308035-40.404953-17.206371-66.759358-42.06782-91.478082z m-923.811054 0.312637l-0.967363 0.063434c-11.395397 0.790655-22.639007 2.297203-33.42952 4.51738-11.141663 18.595114-16.352282 36.564953-19.95214 65.275464a306.302847 306.302847 0 0 1 21.703362 9.616991c5.249132-32.367007 15.205946-57.22166 32.645661-79.473269z m954.408716 0c17.444247 22.251609 27.398795 47.106262 32.645661 79.473269a306.302847 306.302847 0 0 1 21.703361-9.616991c-3.599858-28.710511-8.810477-46.680351-19.949874-65.275464-10.790513-2.220177-22.034122-3.726725-33.431786-4.51738z m63.988668 12.976707c5.856283 14.159291 9.469734 29.401485 12.156601 48.866545l1.28-0.432707c1.166726-0.394195 2.310796-0.779327 3.547752-1.191646l17.120282-5.67731 0.856354-0.274124c3.810548-1.336637 6.787398-4.873062 7.308459-8.794619 0.67285-5.061097-2.46938-10.822229-11.218689-16.404388l-0.23108-0.151787-1.91207-1.327576c-8.327929-5.668247-17.933592-10.477875-28.427326-14.433415z m-1082.383787 0l-0.480283 0.178973c-10.493734 3.95554-20.099397 8.765168-28.429591 14.43115l-1.909805 1.329841-0.233345 0.151787c-8.749309 5.582159-11.889274 11.343291-11.216424 16.404388 0.521062 3.919292 3.497911 7.457982 7.308459 8.794619l0.856354 0.274124 17.120282 5.67731c1.236956 0.412319 2.381026 0.797451 3.545487 1.191646l1.28 0.432707c2.686867-19.465061 6.302584-34.707254 12.158866-48.866545z" fill="#000000" p-id="11701"></path></svg>