<?xml version="1.0" standalone="no"?><!DOCTYPE svg PUBLIC "-//W3C//DTD SVG 1.1//EN" "http://www.w3.org/Graphics/SVG/1.1/DTD/svg11.dtd"><svg t="1704767014066" class="icon" viewBox="0 0 1024 1024" version="1.1" xmlns="http://www.w3.org/2000/svg" p-id="6874" xmlns:xlink="http://www.w3.org/1999/xlink" width="200" height="200"><path d="M853.333333 362.666667a106.666667 106.666667 0 0 1-106.666666 106.666666c-46.08 0-85.333333-29.44-99.84-69.973333-18.773333 16.64-43.52 27.306667-70.826667 27.306667-23.893333 0-46.08-8.106667-64-21.333334-17.92 13.226667-39.68 21.333333-64 21.333334-27.306667 0-52.053333-10.666667-70.826667-27.306667C362.666667 439.893333 323.413333 469.333333 277.333333 469.333333A106.666667 106.666667 0 0 1 170.666667 362.666667c0-52.906667 38.826667-96.853333 89.6-104.96-2.56-7.253333-4.266667-14.933333-4.266667-23.04A64 64 0 0 1 320 170.666667c8.533333 0 16.64 1.706667 23.893333 4.693333C351.146667 148.053333 375.893333 128 405.333333 128c10.666667 0 21.333333 2.986667 29.013334 7.253333C448 106.666667 477.44 85.333333 512 85.333333s64 21.333333 77.653333 49.92c7.68-4.266667 18.346667-7.253333 29.013334-7.253333 29.44 0 54.186667 20.053333 61.44 47.36 7.253333-2.986667 15.36-4.693333 23.893333-4.693333A64 64 0 0 1 768 234.666667c0 8.106667-1.706667 15.786667-4.266667 23.04 50.773333 8.106667 89.6 52.053333 89.6 104.96M426.666667 512a42.666667 42.666667 0 0 0-42.666667 42.666667 42.666667 42.666667 0 0 0 42.666667 42.666666 42.666667 42.666667 0 0 0 42.666666-42.666666 42.666667 42.666667 0 0 0-42.666666-42.666667m170.666666 0a42.666667 42.666667 0 0 0-42.666666 42.666667 42.666667 42.666667 0 0 0 42.666666 42.666666 42.666667 42.666667 0 0 0 42.666667-42.666666 42.666667 42.666667 0 0 0-42.666667-42.666667m265.813334-57.173333c-27.306667 34.56-69.12 57.173333-116.48 57.173333-19.2 0-37.546667-4.266667-55.04-11.52-0.426667 108.8-16.213333 240.213333-75.093334 308.053333-22.186667 25.173333-49.066667 38.826667-83.2 43.093334V768h-42.666666v83.626667c-34.133333-4.266667-61.013333-17.493333-83.2-43.093334-59.306667-68.266667-75.093333-198.826667-75.52-307.626666-17.066667 6.826667-35.413333 11.093333-54.613334 11.093333-47.36 0-89.173333-22.613333-116.48-57.173333C122.88 492.8 85.333333 512 85.333333 512s42.666667 85.333333 128 85.333333c15.36 0 27.306667-1.706667 37.546667-3.84C265.386667 756.48 323.413333 938.666667 512 938.666667s246.613333-182.186667 261.12-345.173334c10.24 2.133333 22.186667 3.84 37.546667 3.84 85.333333 0 128-85.333333 128-85.333333s-37.546667-19.2-75.52-57.173333z" p-id="6875"></path></svg>